<?xml version="1.0" encoding="UTF-8"?>
<svg width="338px" height="136px" viewBox="0 0 338 136" version="1.1" xmlns="http://www.w3.org/2000/svg" xmlns:xlink="http://www.w3.org/1999/xlink">
    <!-- Generator: Sketch 53.2 (72643) - https://sketchapp.com -->
    <title>Graph/Line</title>
    <desc>Created with Sketch.</desc>
    <defs>
        <path d="M7.79851247,151.270774 C6.83948262,152.301785 5.25681385,152.330614 4.26352285,151.335165 C3.27023184,150.339716 3.24245768,148.696946 4.20148753,147.665935 L58.1029759,89.7188097 C62.8981251,84.5637551 70.8114689,84.4196107 75.777924,89.3968542 C75.8480563,89.4671389 81.6163365,95.66453 93.0827645,107.989027 C95.9598541,111.08206 100.70786,111.168547 103.687733,108.182201 C103.729813,108.14003 124.202329,86.1332262 165.105282,42.16179 C169.900431,37.0067354 177.813775,36.862591 182.78023,41.8398345 C182.850362,41.9101192 189.411901,48.960308 202.464847,62.9904008 C205.341936,66.0834336 210.089942,66.1699202 213.069815,63.1835741 C213.111895,63.1414032 226.437252,48.8181972 253.045886,20.2139559 C257.841035,15.0589013 265.754379,14.914757 270.720834,19.8920005 C270.790966,19.9622852 295.150192,46.1459868 343.798512,98.4431052 C344.757542,99.4741161 344.729768,101.116886 343.736477,102.112335 C342.743186,103.107784 341.160517,103.078955 340.201488,102.047944 L267.433985,23.8187946 C264.268006,20.6392752 259.52,20.7257618 256.642911,23.8187946 L216.852946,66.5952395 C211.576315,71.8944384 203.662971,71.7502941 198.867822,66.5952395 L179.493381,45.7666286 C176.327402,42.5871092 171.579396,42.6735958 168.702307,45.7666286 L107.470864,111.593866 C102.194233,116.893065 94.2808888,116.748921 89.4857396,111.593866 L72.4910756,93.3236483 C69.3250966,90.1441289 64.5770904,90.2306156 61.7000008,93.3236483 L7.79851247,151.270774 Z" id="path-1"></path>
    </defs>
    <g id="📱-Individual-Screens" stroke="none" stroke-width="1" fill="none" fill-rule="evenodd">
        <g id="Analytics-Graphs-2" transform="translate(0.000000, -194.000000)">
            <g id="Graph" transform="translate(-7.000000, 155.000000)">
                <g id="Graph/Line-Negative" transform="translate(0.000000, 23.000000)">
                    <mask id="mask-2" fill="#687089">
                        <use xlink:href="#path-1"></use>
                    </mask>
                    <use id="Line" fill="#687089" fill-rule="nonzero" xlink:href="#path-1"></use>
                    <g id="UI/Master-Color" mask="url(#mask-2)" fill-rule="evenodd">
                        <g transform="translate(-1.000000, -1.037975)" id="Color">
                            <rect fill="#687089" x="0" y="0" width="349" height="166"></rect>
                            <rect fill="#687089" x="0" y="0" width="349" height="166"></rect>
                        </g>
                    </g>
                </g>
            </g>
        </g>
    </g>
</svg>