<?xml version="1.0" encoding="UTF-8"?>
<svg width="342px" height="130px" viewBox="0 0 342 130" version="1.1" xmlns="http://www.w3.org/2000/svg" xmlns:xlink="http://www.w3.org/1999/xlink">
    <!-- Generator: Sketch 53.2 (72643) - https://sketchapp.com -->
    <title>Graph/Line</title>
    <desc>Created with Sketch.</desc>
    <defs>
        <path d="M5.42053537,149.931344 C4.28437419,150.725815 2.72733822,150.437161 1.9427982,149.286618 C1.15825817,148.136075 1.44330345,146.55933 2.57946463,145.764859 L66.7062733,100.923612 C72.9218942,96.5772836 81.1225543,96.4940491 87.422954,100.713344 L117.088561,120.580009 C122.226625,124.020903 129.013178,123.503346 133.584396,119.322003 L172.017556,84.1667653 C176.76886,79.820695 183.401502,78.2714245 189.55263,80.0708752 L216.590784,87.9806149 C229.663354,91.8048638 243.739971,89.5036103 254.96011,81.7079749 L340.585632,22.2162565 C341.724137,21.4252347 343.280313,21.7186088 344.061447,22.8715258 C344.842581,24.0244429 344.552874,25.6003166 343.414368,26.3913384 L257.788846,85.8830568 C245.335725,94.5353555 229.712228,97.089494 215.203111,92.8449979 L188.164957,84.9352582 C183.676296,83.6221455 178.83626,84.7526943 175.369092,87.924151 L136.935932,123.079389 C130.671671,128.809378 121.37158,129.518622 114.330529,124.803323 L84.6649219,104.936658 C80.0673329,101.857713 74.0830674,101.918452 69.547344,105.090097 L5.42053537,149.931344 Z" id="path-1"></path>
    </defs>
    <g id="📱-Individual-Screens" stroke="none" stroke-width="1" fill="none" fill-rule="evenodd">
        <g id="Analytics-Graphs-3" transform="translate(0.000000, -169.000000)">
            <g id="Graph" transform="translate(-3.000000, 102.000000)">
                <g id="Graph/Line-Possitive" transform="translate(0.000000, 46.000000)">
                    <mask id="mask-2" fill="#687089">
                        <use xlink:href="#path-1"></use>
                    </mask>
                    <use id="Line" fill="#687089" fill-rule="nonzero" xlink:href="#path-1"></use>
                    <g id="UI/Colors/White" mask="url(#mask-2)" fill="#687089" fill-rule="evenodd">
                        <rect id="Color" x="0" y="0" width="349" height="162"></rect>
                    </g>
                </g>
            </g>
        </g>
    </g>
</svg>